<?xml version="1.0" encoding="UTF-8"?>
<svg id="Layer_1" xmlns="http://www.w3.org/2000/svg" version="1.1" viewBox="0 0 185.1 103.9">
  <!-- Generator: Adobe Illustrator 30.4.0, SVG Export Plug-In . SVG Version: 2.1.4 Build 226)  -->
  <defs>
    <style>
      .st0 {
        fill: #ffd800;
      }

      .st1 {
        fill: #fff;
      }
    </style>
  </defs>
  <path class="st1" d="M130.7,58c-1.2-1.2-1-3.4-1-4.8v-5.2h20.6v-9.1h-30.2v20.7s0,4,2.5,6.8c1.7,1.8,4.2,2.7,7.4,2.7h20.2v-9.6h-15.7c-1.7,0-3-.6-3.9-1.6h0Z"/>
  <polygon class="st1" points="30.8 47.8 42.6 47.8 42.6 39 10.8 39 10.8 47.8 22 47.8 9.9 59.5 16.4 66 22.9 59.4 26.6 55.5 30.5 59.5 37 66 43.5 59.5 30.8 47.8"/>
  <path class="st1" d="M83.7,66c7.9,0,14.4-6.5,14.4-14.4s-6.5-14.4-14.4-14.4-14.4,6.5-14.4,14.4,6.5,14.4,14.4,14.4ZM83.7,45.5c3.4,0,6.1,2.7,6.1,6.1s-2.7,6.1-6.1,6.1-6.1-2.7-6.1-6.1,2.7-6.1,6.1-6.1Z"/>
  <path class="st1" d="M95.5,72.1h-26.9v9.2h26.6c.2,0,.3,0,.6,0,2.3,0,8.1-.5,12.6-4.6,2.2-2.1,4.9-6,4.9-12.5v-25.2h-9.2v25.2c0,2.6-.6,4.5-2,5.7-2.2,2.1-5.8,2.2-6.2,2.2s-.2,0-.2,0h-.2Z"/>
  <path class="st1" d="M52.9,39v9h-8.8v9.2h8.8v14.7h-6.4c-8.6,0-15.6,7-15.6,15.6s7,15.6,15.6,15.6,15.6-7,15.6-15.6v-48.5s-9.2,0-9.2,0ZM52.9,81.8v5.7c0,3.5-2.9,6.4-6.4,6.4s-6.4-2.9-6.4-6.4,2.9-6.4,6.4-6.4h6.4v.7Z"/>
  <path class="st1" d="M174.7,48h-8.7v-9h-9.2v32.9h-6.4c-8.6,0-15.6,7-15.6,15.6s7,15.6,15.6,15.6,15.6-7,15.6-15.6v-30.3h8.7v-9.2h0ZM156.8,81.8v5.7c0,3.5-2.9,6.4-6.4,6.4s-6.4-2.9-6.4-6.4,2.9-6.4,6.4-6.4h6.4v.7Z"/>
  <polygon class="st0" points="107.7 34.1 88.5 15 95 8.6 107.7 21.2 128.9 0 135.3 6.4 107.7 34.1"/>
</svg>